<mxfile host="app.diagrams.net" agent="Mozilla/5.0 (Windows NT 10.0; Win64; x64) AppleWebKit/537.36 (KHTML, like Gecko) Chrome/131.0.0.0 Safari/537.36" version="25.0.1">
  <diagram name="Page-1" id="TGuidVHUv_1VwZqodiuF">
    <mxGraphModel dx="954" dy="558" grid="1" gridSize="10" guides="1" tooltips="1" connect="1" arrows="1" fold="1" page="1" pageScale="1" pageWidth="827" pageHeight="1169" math="0" shadow="0">
      <root>
        <mxCell id="0" />
        <mxCell id="1" parent="0" />
        <mxCell id="52l0RrwCWaF9oOcHQBXl-7" style="edgeStyle=orthogonalEdgeStyle;rounded=0;orthogonalLoop=1;jettySize=auto;html=1;entryX=0.5;entryY=0;entryDx=0;entryDy=0;" edge="1" parent="1" source="52l0RrwCWaF9oOcHQBXl-1">
          <mxGeometry relative="1" as="geometry">
            <mxPoint x="414" y="160" as="targetPoint" />
          </mxGeometry>
        </mxCell>
        <mxCell id="52l0RrwCWaF9oOcHQBXl-1" value="Start" style="ellipse;whiteSpace=wrap;html=1;aspect=fixed;" vertex="1" parent="1">
          <mxGeometry x="374" y="20" width="80" height="80" as="geometry" />
        </mxCell>
        <mxCell id="52l0RrwCWaF9oOcHQBXl-12" style="edgeStyle=orthogonalEdgeStyle;rounded=0;orthogonalLoop=1;jettySize=auto;html=1;entryX=0.5;entryY=0;entryDx=0;entryDy=0;" edge="1" parent="1" target="52l0RrwCWaF9oOcHQBXl-8">
          <mxGeometry relative="1" as="geometry">
            <mxPoint x="414" y="220" as="sourcePoint" />
          </mxGeometry>
        </mxCell>
        <mxCell id="52l0RrwCWaF9oOcHQBXl-22" style="edgeStyle=orthogonalEdgeStyle;rounded=0;orthogonalLoop=1;jettySize=auto;html=1;entryX=0.5;entryY=0;entryDx=0;entryDy=0;" edge="1" parent="1" source="52l0RrwCWaF9oOcHQBXl-8" target="52l0RrwCWaF9oOcHQBXl-21">
          <mxGeometry relative="1" as="geometry" />
        </mxCell>
        <mxCell id="52l0RrwCWaF9oOcHQBXl-8" value="Redirect to Google login page" style="rounded=1;whiteSpace=wrap;html=1;" vertex="1" parent="1">
          <mxGeometry x="354" y="280" width="120" height="60" as="geometry" />
        </mxCell>
        <mxCell id="52l0RrwCWaF9oOcHQBXl-14" style="edgeStyle=orthogonalEdgeStyle;rounded=0;orthogonalLoop=1;jettySize=auto;html=1;entryX=0.5;entryY=0;entryDx=0;entryDy=0;" edge="1" parent="1" source="52l0RrwCWaF9oOcHQBXl-10" target="52l0RrwCWaF9oOcHQBXl-11">
          <mxGeometry relative="1" as="geometry" />
        </mxCell>
        <mxCell id="52l0RrwCWaF9oOcHQBXl-10" value="Google returns an Authorization code" style="rounded=1;whiteSpace=wrap;html=1;" vertex="1" parent="1">
          <mxGeometry x="110" y="460" width="120" height="60" as="geometry" />
        </mxCell>
        <mxCell id="52l0RrwCWaF9oOcHQBXl-31" style="edgeStyle=orthogonalEdgeStyle;rounded=0;orthogonalLoop=1;jettySize=auto;html=1;entryX=0.5;entryY=0;entryDx=0;entryDy=0;" edge="1" parent="1" source="52l0RrwCWaF9oOcHQBXl-11" target="52l0RrwCWaF9oOcHQBXl-30">
          <mxGeometry relative="1" as="geometry" />
        </mxCell>
        <mxCell id="52l0RrwCWaF9oOcHQBXl-11" value="Get user info using the code" style="rounded=1;whiteSpace=wrap;html=1;" vertex="1" parent="1">
          <mxGeometry x="110" y="584.5" width="120" height="60" as="geometry" />
        </mxCell>
        <mxCell id="52l0RrwCWaF9oOcHQBXl-39" style="edgeStyle=orthogonalEdgeStyle;rounded=0;orthogonalLoop=1;jettySize=auto;html=1;entryX=1;entryY=0.5;entryDx=0;entryDy=0;" edge="1" parent="1" source="52l0RrwCWaF9oOcHQBXl-15" target="52l0RrwCWaF9oOcHQBXl-17">
          <mxGeometry relative="1" as="geometry">
            <Array as="points">
              <mxPoint x="380" y="890" />
            </Array>
          </mxGeometry>
        </mxCell>
        <mxCell id="52l0RrwCWaF9oOcHQBXl-15" value="Store the details in the database using Access tokens" style="rounded=1;whiteSpace=wrap;html=1;" vertex="1" parent="1">
          <mxGeometry x="320" y="770" width="120" height="60" as="geometry" />
        </mxCell>
        <mxCell id="52l0RrwCWaF9oOcHQBXl-40" style="edgeStyle=orthogonalEdgeStyle;rounded=0;orthogonalLoop=1;jettySize=auto;html=1;entryX=0;entryY=0.5;entryDx=0;entryDy=0;" edge="1" parent="1" source="52l0RrwCWaF9oOcHQBXl-17" target="52l0RrwCWaF9oOcHQBXl-19">
          <mxGeometry relative="1" as="geometry">
            <Array as="points">
              <mxPoint x="170" y="970" />
            </Array>
          </mxGeometry>
        </mxCell>
        <mxCell id="52l0RrwCWaF9oOcHQBXl-17" value="Open portal" style="rounded=1;whiteSpace=wrap;html=1;" vertex="1" parent="1">
          <mxGeometry x="110" y="860" width="120" height="60" as="geometry" />
        </mxCell>
        <mxCell id="52l0RrwCWaF9oOcHQBXl-19" value="Stop" style="ellipse;whiteSpace=wrap;html=1;aspect=fixed;" vertex="1" parent="1">
          <mxGeometry x="374" y="930" width="80" height="80" as="geometry" />
        </mxCell>
        <mxCell id="52l0RrwCWaF9oOcHQBXl-24" style="edgeStyle=orthogonalEdgeStyle;rounded=0;orthogonalLoop=1;jettySize=auto;html=1;entryX=0.5;entryY=0;entryDx=0;entryDy=0;" edge="1" parent="1" source="52l0RrwCWaF9oOcHQBXl-21" target="52l0RrwCWaF9oOcHQBXl-10">
          <mxGeometry relative="1" as="geometry" />
        </mxCell>
        <mxCell id="52l0RrwCWaF9oOcHQBXl-28" style="edgeStyle=orthogonalEdgeStyle;rounded=0;orthogonalLoop=1;jettySize=auto;html=1;entryX=0.5;entryY=0;entryDx=0;entryDy=0;" edge="1" parent="1" source="52l0RrwCWaF9oOcHQBXl-21" target="52l0RrwCWaF9oOcHQBXl-27">
          <mxGeometry relative="1" as="geometry" />
        </mxCell>
        <mxCell id="52l0RrwCWaF9oOcHQBXl-21" value="Valid?" style="rhombus;whiteSpace=wrap;html=1;" vertex="1" parent="1">
          <mxGeometry x="374" y="370" width="80" height="80" as="geometry" />
        </mxCell>
        <mxCell id="52l0RrwCWaF9oOcHQBXl-25" value="Yes" style="text;html=1;align=center;verticalAlign=middle;whiteSpace=wrap;rounded=0;" vertex="1" parent="1">
          <mxGeometry x="250" y="380" width="60" height="30" as="geometry" />
        </mxCell>
        <mxCell id="52l0RrwCWaF9oOcHQBXl-26" value="&quot;Register using Google&quot;" style="ellipse;whiteSpace=wrap;html=1;" vertex="1" parent="1">
          <mxGeometry x="354" y="160" width="120" height="70" as="geometry" />
        </mxCell>
        <mxCell id="52l0RrwCWaF9oOcHQBXl-41" style="edgeStyle=orthogonalEdgeStyle;rounded=0;orthogonalLoop=1;jettySize=auto;html=1;entryX=1;entryY=0.5;entryDx=0;entryDy=0;" edge="1" parent="1" source="52l0RrwCWaF9oOcHQBXl-27" target="52l0RrwCWaF9oOcHQBXl-19">
          <mxGeometry relative="1" as="geometry">
            <Array as="points">
              <mxPoint x="650" y="970" />
            </Array>
          </mxGeometry>
        </mxCell>
        <mxCell id="52l0RrwCWaF9oOcHQBXl-27" value="Prompt user to enter correct details - request failed" style="rounded=1;whiteSpace=wrap;html=1;" vertex="1" parent="1">
          <mxGeometry x="590" y="460" width="120" height="60" as="geometry" />
        </mxCell>
        <mxCell id="52l0RrwCWaF9oOcHQBXl-29" value="No" style="text;html=1;align=center;verticalAlign=middle;whiteSpace=wrap;rounded=0;" vertex="1" parent="1">
          <mxGeometry x="530" y="380" width="60" height="30" as="geometry" />
        </mxCell>
        <mxCell id="52l0RrwCWaF9oOcHQBXl-32" style="edgeStyle=orthogonalEdgeStyle;rounded=0;orthogonalLoop=1;jettySize=auto;html=1;entryX=0.5;entryY=0;entryDx=0;entryDy=0;" edge="1" parent="1" source="52l0RrwCWaF9oOcHQBXl-30" target="52l0RrwCWaF9oOcHQBXl-15">
          <mxGeometry relative="1" as="geometry" />
        </mxCell>
        <mxCell id="52l0RrwCWaF9oOcHQBXl-35" style="edgeStyle=orthogonalEdgeStyle;rounded=0;orthogonalLoop=1;jettySize=auto;html=1;entryX=0.5;entryY=0;entryDx=0;entryDy=0;" edge="1" parent="1" source="52l0RrwCWaF9oOcHQBXl-30" target="52l0RrwCWaF9oOcHQBXl-17">
          <mxGeometry relative="1" as="geometry" />
        </mxCell>
        <mxCell id="52l0RrwCWaF9oOcHQBXl-30" value="Registered user?" style="rhombus;whiteSpace=wrap;html=1;" vertex="1" parent="1">
          <mxGeometry x="130" y="680" width="80" height="80" as="geometry" />
        </mxCell>
        <mxCell id="52l0RrwCWaF9oOcHQBXl-33" value="No" style="text;html=1;align=center;verticalAlign=middle;whiteSpace=wrap;rounded=0;" vertex="1" parent="1">
          <mxGeometry x="260" y="690" width="60" height="30" as="geometry" />
        </mxCell>
        <mxCell id="52l0RrwCWaF9oOcHQBXl-36" value="Yes" style="text;html=1;align=center;verticalAlign=middle;whiteSpace=wrap;rounded=0;" vertex="1" parent="1">
          <mxGeometry x="110" y="785" width="60" height="30" as="geometry" />
        </mxCell>
      </root>
    </mxGraphModel>
  </diagram>
</mxfile>
